<svg id="visual" viewBox="0 0 960 540" width="960" height="540" xmlns="http://www.w3.org/2000/svg" xmlns:xlink="http://www.w3.org/1999/xlink" version="1.1"><rect width="960" height="540" fill="#ffffff"></rect><g><g transform="translate(59 492)"><path d="M0 -112.6L88 -70.2L109.8 25.1L48.9 101.5L-48.9 101.5L-109.8 25.1L-88 -70.2Z" fill="#8f8f8f"></path></g><g transform="translate(305 374)"><path d="M0 -108L84.4 -67.3L105.3 24L46.9 97.3L-46.9 97.3L-105.3 24L-84.4 -67.3Z" fill="#8f8f8f"></path></g><g transform="translate(775 160)"><path d="M0 -40L31.3 -24.9L39 8.9L17.4 36L-17.4 36L-39 8.9L-31.3 -24.9Z" fill="#8f8f8f"></path></g><g transform="translate(489 147)"><path d="M0 -35L27.4 -21.8L34.1 7.8L15.2 31.5L-15.2 31.5L-34.1 7.8L-27.4 -21.8Z" fill="#8f8f8f"></path></g><g transform="translate(290 26)"><path d="M0 -93L72.7 -58L90.7 20.7L40.4 83.8L-40.4 83.8L-90.7 20.7L-72.7 -58Z" fill="#8f8f8f"></path></g></g></svg>